<svg xmlns="http://www.w3.org/2000/svg" width="512.001" height="356.457" viewBox="0 0 512.001 356.457"><defs><style>.a{fill:#fff;}</style></defs><g transform="translate(0 -77.772)"><path class="a" d="M405.968,219.011c-1.07-78.063-64.9-141.239-143.214-141.239A143.154,143.154,0,0,0,122.713,191.559c-.461-.005-.918-.009-1.374-.009a121.34,121.34,0,0,0,0,242.679H404.385a107.615,107.615,0,0,0,1.583-215.218Zm-1.583,193.38H121.339a99.5,99.5,0,0,1,0-199c2.925,0,6.015.156,9.446.48a10.916,10.916,0,0,0,11.844-9.4A121.316,121.316,0,0,1,384.141,221c0,2.41-.179,4.894-.368,7.524l-.08,1.119a10.92,10.92,0,0,0,11.985,11.634c2.9-.292,5.831-.44,8.706-.44a85.778,85.778,0,0,1,0,171.556Z"/><path class="a" d="M262.754,129.09a92.1,92.1,0,0,0-90.913,79.367,10.919,10.919,0,1,0,21.637,2.952,70.183,70.183,0,0,1,69.275-60.481,10.919,10.919,0,0,0,0-21.838Z"/></g></svg>