<svg xmlns="http://www.w3.org/2000/svg" width="512" height="396.973" viewBox="0 0 512 396.973"><defs><style>.a{fill:#fff;fill-rule:evenodd;}</style></defs><g transform="translate(0 0)"><path class="a" d="M460.313,91.066a56.776,56.776,0,0,0-63.355-42.988A92.569,92.569,0,0,0,239.9,39.551a108.809,108.809,0,0,0-166.652,64.2,73.551,73.551,0,0,0,.3,147.1h277.7A60.583,60.583,0,0,0,411.536,195.5h48.25a52.216,52.216,0,0,0,.527-104.43ZM351.254,230.847H73.551a53.551,53.551,0,1,1,6.57-106.7,10,10,0,0,0,11.1-8.379A88.789,88.789,0,0,1,236.66,62.183a89.763,89.763,0,0,1,20.031,24.59c.137.25.277.5.414.75.254.473.5.949.75,1.426s.488.957.727,1.441c.176.352.352.707.523,1.063.418.879.828,1.762,1.219,2.66.129.289.27.57.418.844a9.786,9.786,0,0,0,.832,1.25,9.982,9.982,0,0,0,10.832,3.465,45.74,45.74,0,0,1,11.719-1.965c.57-.023,1.141-.031,1.715-.031a45.843,45.843,0,0,1,45.848,43.555,9.956,9.956,0,0,0,.672,3.129c.035.086.078.168.113.254.1.238.2.48.324.715a9.982,9.982,0,0,0,2.707,3.266c.184.145.375.27.563.4.109.07.211.156.324.223a.344.344,0,0,0,.039.023,10,10,0,0,0,7.133,1.309h.016a40.759,40.759,0,0,1,6.957-.715c.242,0,.48-.016.723-.016h.012c.68,0,1.359.02,2.031.051.109.008.219.02.328.023.582.035,1.164.074,1.738.133.043,0,.086.012.133.016A40.6,40.6,0,0,1,391.274,184c.012.078.027.156.039.23.078.5.133,1,.191,1.5.02.191.051.379.066.574.133,1.328.2,2.676.2,4.039a40.562,40.562,0,0,1-40.52,40.512ZM459.781,175.5H409.937c-.023-.086-.051-.176-.07-.262a.092.092,0,0,1-.008-.031c-.238-.918-.5-1.824-.777-2.73-.023-.074-.047-.152-.07-.23a60.561,60.561,0,0,0-36.918-38.73l-.207-.07q-1.242-.451-2.5-.852l-.516-.152c-.746-.23-1.5-.445-2.254-.645-.242-.062-.484-.121-.727-.18-.7-.172-1.4-.34-2.109-.488-.281-.059-.566-.113-.852-.168-.676-.133-1.355-.258-2.039-.367l-.93-.141c-.668-.1-1.34-.184-2.012-.254-.328-.039-.652-.07-.98-.1-.66-.062-1.324-.113-1.988-.152-.348-.02-.7-.043-1.051-.059-.629-.027-1.262-.039-1.891-.047-.262,0-.52-.02-.777-.02-.316,0-.629,0-.945.008a65.821,65.821,0,0,0-64.473-52.152q-1.365,0-2.73.059l-.211.012c-.836.039-1.672.086-2.5.156-.2.016-.4.043-.6.059-.7.066-1.4.129-2.105.219-.133.016-.266.039-.4.059-.762.1-1.523.2-2.281.328a108.761,108.761,0,0,0-19.586-26.3A72.585,72.585,0,0,1,382.293,63.527a10,10,0,0,0,12.078,5.559A36.757,36.757,0,0,1,441.8,102.328a10,10,0,0,0,11.875,9.316,32.218,32.218,0,1,1,6.109,63.852Zm0,0"/><path class="a" d="M167.676,278.766a10,10,0,0,0-13.2,5.082l-43.992,99.066a10,10,0,1,0,18.277,8.117l43.992-99.066a10,10,0,0,0-5.078-13.2Zm0,0"/><path class="a" d="M243.93,278.766a10,10,0,0,0-13.2,5.082l-27.754,62.5a10,10,0,1,0,18.277,8.117l27.754-62.5a10,10,0,0,0-5.078-13.2Zm0,0"/><path class="a" d="M320.184,278.766a10,10,0,0,0-13.2,5.082l-43.992,99.066a10,10,0,1,0,18.277,8.117l43.992-99.066a10,10,0,0,0-5.078-13.2Zm0,0"/><path class="a" d="M396.434,278.766a10,10,0,0,0-13.2,5.082l-27.758,62.5a10,10,0,1,0,18.281,8.117l27.754-62.5A10,10,0,0,0,396.434,278.766Zm0,0"/><path class="a" d="M195.875,376.969a10,10,0,1,0,10,10A10.019,10.019,0,0,0,195.875,376.969Zm0,0"/><path class="a" d="M348.383,376.969a10,10,0,1,0,10,10A10.019,10.019,0,0,0,348.383,376.969Zm0,0"/></g></svg>