<svg xmlns="http://www.w3.org/2000/svg" width="512" height="469.335" viewBox="0 0 512 469.335"><defs><style>.a{fill:#fff;}</style></defs><g transform="translate(0 -21.333)"><path class="a" d="M426.667,106.667A85.333,85.333,0,0,0,341.334,192H384a42.667,42.667,0,1,1,42.667,42.667H128v42.667H426.667a85.333,85.333,0,0,0,0-170.667Z"/><path class="a" d="M339.778,320H85.333v42.667H339.778a42.667,42.667,0,0,1,42.667,42.667v1.555A41.112,41.112,0,0,1,341.333,448v42.667a83.778,83.778,0,0,0,83.778-83.778v-1.555A85.332,85.332,0,0,0,339.778,320Z"/><rect class="a" width="85.333" height="42.667" transform="translate(0 234.667)"/><path class="a" d="M213.077,21.333a84.035,84.035,0,0,0-84.035,84.035v5.392h42.667v-5.392a41.368,41.368,0,0,1,82.736,0v1.3a42.667,42.667,0,0,1-42.667,42.667H42.667V192H211.779a85.333,85.333,0,0,0,85.333-85.333v-1.3A84.035,84.035,0,0,0,213.077,21.333Z"/></g></svg>