<svg xmlns="http://www.w3.org/2000/svg" width="512" height="332" viewBox="0 0 512 332"><defs><style>.a{fill:#fff;}</style></defs><g transform="translate(0 -90)"><path class="a" d="M78.5,158H34a34,34,0,0,1,0-68H78.5a34,34,0,0,1,0,68ZM34,110a14,14,0,0,0,0,28H78.5a14,14,0,0,0,0-28Z"/><path class="a" d="M218.5,158h-52a34,34,0,0,1,0-68h52a34,34,0,0,1,0,68Zm-52-48a14,14,0,0,0,0,28h52a14,14,0,0,0,0-28Z"/><path class="a" d="M346.5,158h-40a34,34,0,0,1,0-68h40a34,34,0,0,1,0,68Zm-40-48a14,14,0,0,0,0,28h40a14,14,0,0,0,0-28Z"/><path class="a" d="M478,158H434.5a34,34,0,0,1,0-68H478a34,34,0,0,1,0,68Zm-43.5-48a14,14,0,0,0,0,28H478a14,14,0,0,0,0-28Z"/><path class="a" d="M78.5,334H34a34,34,0,0,1,0-68H78.5a34,34,0,0,1,0,68ZM34,286a14,14,0,0,0,0,28H78.5a14,14,0,0,0,0-28Z"/><path class="a" d="M218.5,334H166a34,34,0,0,1,0-68h52.5a34,34,0,0,1,0,68ZM166,286a14,14,0,0,0,0,28h52.5a14,14,0,0,0,0-28Z"/><path class="a" d="M346.5,334H306a34,34,0,0,1,0-68h40.5a34,34,0,0,1,0,68ZM306,286a14,14,0,0,0,0,28h40.5a14,14,0,0,0,0-28Z"/><path class="a" d="M478,334H434a34,34,0,0,1,0-68h44a34,34,0,0,1,0,68Zm-44-48a14,14,0,0,0,0,28h44a14,14,0,0,0,0-28Z"/><path class="a" d="M135,246H63.394a34,34,0,0,1,0-68H135a34,34,0,0,1,0,68ZM63.394,198a14,14,0,0,0,0,28H135a14,14,0,0,0,0-28Z"/><path class="a" d="M289,246H223a34,34,0,0,1,0-68h66a34,34,0,0,1,0,68Zm-66-48a14,14,0,0,0,0,28h66a14,14,0,0,0,0-28Z"/><path class="a" d="M448.606,246H377a34,34,0,0,1,0-68h71.606a34,34,0,1,1,0,68ZM377,198a14,14,0,0,0,0,28h71.606a14,14,0,0,0,0-28Z"/><path class="a" d="M292.917,422H274.289a10,10,0,1,1,0-20h18.628a14,14,0,0,0,0-28H175.667a14,14,0,0,0,0,28h18.625a10,10,0,0,1,0,20H175.667a34,34,0,0,1,0-68h117.25a34,34,0,0,1,0,68Z"/><path class="a" d="M459.417,422h-78.5a34,34,0,0,1,0-68h78.5a34,34,0,0,1,0,68Zm-78.5-48a14,14,0,0,0,0,28h78.5a14,14,0,0,0,0-28Z"/><path class="a" d="M87.667,422H52.583a34,34,0,0,1,0-68H87.667a34,34,0,0,1,0,68ZM52.583,374a14,14,0,0,0,0,28H87.667a14,14,0,0,0,0-28Z"/><path class="a" d="M234.29,422a10.007,10.007,0,1,1,7.069-2.931A10.072,10.072,0,0,1,234.29,422Z"/></g></svg>