<svg xmlns="http://www.w3.org/2000/svg" width="419.852" height="438.276" viewBox="0 0 419.852 438.276"><defs><style>.a{fill:#fff;}</style></defs><g transform="translate(-9.212 -0.001)"><path class="a" d="M428.756,300.1a17.721,17.721,0,0,0-5-9.713q-8.85-8.855-20.554-3.716a154.656,154.656,0,0,1-143.04-6.28,154.8,154.8,0,0,1-56.525-56.53A151.776,151.776,0,0,1,182.8,145.92a152.567,152.567,0,0,1,50.534-114.2q9.425-8.847,4.287-20.557Q232.764-.543,220.2.027a218.217,218.217,0,0,0-82.8,19.556Q98.292,37.426,70.168,66.548T25.628,135.5A217.074,217.074,0,0,0,9.212,219.009a213.344,213.344,0,0,0,17.416,85.082q17.419,40.542,46.824,69.949T143.4,420.862a213.372,213.372,0,0,0,85.075,17.415q63.96,0,118.054-34.69t80.944-92.645A18.264,18.264,0,0,0,428.756,300.1ZM306.565,384.168a179.723,179.723,0,0,1-78.087,17.562,177.655,177.655,0,0,1-70.947-14.558Q123.7,372.615,99.285,348.2t-38.97-58.241a177.618,177.618,0,0,1-14.561-70.948q0-61.383,36.4-109.636T175.945,44Q146.253,91.1,146.251,145.922A191.451,191.451,0,0,0,241.9,312.093a188.255,188.255,0,0,0,96.211,25.694,190.56,190.56,0,0,0,31.408-2.57A181.947,181.947,0,0,1,306.565,384.168Z"/></g></svg>