<svg xmlns="http://www.w3.org/2000/svg" width="469.335" height="469.335" viewBox="0 0 469.335 469.335"><defs><style>.a{fill:#fff;}</style></defs><g transform="translate(-6.5 -6.6)"><g transform="translate(6.5 6.6)"><path class="a" d="M149.788,263.175A113.36,113.36,0,0,0,263.075,149.888C263.075,87.579,212.1,36.6,149.788,36.6S36.5,87.579,36.5,149.888A113.36,113.36,0,0,0,149.788,263.175Zm0-193.8a80.515,80.515,0,1,1-80.515,80.515A80.466,80.466,0,0,1,149.788,69.373Z" transform="translate(84.88 84.78)"/><path class="a" d="M93.577,75.382V23.189a16.589,16.589,0,1,0-33.177,0V75.382a16.589,16.589,0,1,0,33.177,0Z" transform="translate(157.679 -6.6)"/><path class="a" d="M60.4,118.089v52.193a16.589,16.589,0,1,0,33.177,0V118.089a16.589,16.589,0,0,0-33.177,0Z" transform="translate(157.679 282.465)"/><path class="a" d="M117.722,87.54,154.54,50.722a16.594,16.594,0,0,0-23.467-23.467L94.255,64.074a16.605,16.605,0,0,0,0,23.467,16.605,16.605,0,0,0,23.467,0Z" transform="translate(246.013 41.527)"/><path class="a" d="M27.155,154.64A16.2,16.2,0,0,0,38.889,159.5a16.892,16.892,0,0,0,11.733-4.855L87.44,117.822A16.594,16.594,0,0,0,63.974,94.355L27.155,131.174a16.605,16.605,0,0,0,0,23.467Z" transform="translate(41.627 245.913)"/><path class="a" d="M186.77,77.089A16.407,16.407,0,0,0,170.182,60.5H117.989a16.589,16.589,0,1,0,0,33.177h52.193A16.663,16.663,0,0,0,186.77,77.089Z" transform="translate(282.565 157.579)"/><path class="a" d="M23.089,93.677H75.282a16.589,16.589,0,1,0,0-33.177H23.089A16.407,16.407,0,0,0,6.5,77.089,16.663,16.663,0,0,0,23.089,93.677Z" transform="translate(-6.5 157.579)"/><path class="a" d="M142.807,159.5a16.893,16.893,0,0,0,11.733-4.855,16.605,16.605,0,0,0,0-23.467L117.722,94.355a16.594,16.594,0,0,0-23.467,23.467l36.819,36.819A16.892,16.892,0,0,0,142.807,159.5Z" transform="translate(246.013 245.913)"/><path class="a" d="M87.44,87.54a16.605,16.605,0,0,0,0-23.467L50.622,27.255A16.593,16.593,0,0,0,27.155,50.722L63.974,87.54a16.605,16.605,0,0,0,23.467,0Z" transform="translate(41.627 41.527)"/></g></g></svg>