<?xml version="1.0" encoding="iso-8859-1"?>
<!-- Generator: Adobe Illustrator 19.0.0, SVG Export Plug-In . SVG Version: 6.00 Build 0)  -->
<svg xmlns="http://www.w3.org/2000/svg" xmlns:xlink="http://www.w3.org/1999/xlink" version="1.1" id="Layer_1" x="0px" y="0px" viewBox="0 0 512 512" style="enable-background:new 0 0 512 512;" xml:space="preserve" width="512" height="512">
<g id="XMLID_246_">
	<g id="XMLID_190_">
		<g id="XMLID_193_">
			<g id="XMLID_2614_">
				<g id="XMLID_2617_">
					<path id="XMLID_2619_" d="M78.5,158H34c-18.748,0-34-15.252-34-34s15.252-34,34-34h44.5c18.748,0,34,15.252,34,34       S97.248,158,78.5,158z M34,110c-7.72,0-14,6.28-14,14s6.28,14,14,14h44.5c7.72,0,14-6.28,14-14s-6.28-14-14-14H34z"/>
				</g>
			</g>
			<g id="XMLID_2609_">
				<g id="XMLID_2610_">
					<path id="XMLID_2611_" d="M218.5,158h-52c-18.748,0-34-15.252-34-34s15.252-34,34-34h52c18.748,0,34,15.252,34,34       S237.248,158,218.5,158z M166.5,110c-7.72,0-14,6.28-14,14s6.28,14,14,14h52c7.72,0,14-6.28,14-14s-6.28-14-14-14H166.5z"/>
				</g>
			</g>
			<g id="XMLID_243_">
				<g id="XMLID_244_">
					<path id="XMLID_245_" d="M346.5,158h-40c-18.748,0-34-15.252-34-34s15.252-34,34-34h40c18.748,0,34,15.252,34,34       S365.248,158,346.5,158z M306.5,110c-7.72,0-14,6.28-14,14s6.28,14,14,14h40c7.72,0,14-6.28,14-14s-6.28-14-14-14H306.5z"/>
				</g>
			</g>
			<g id="XMLID_238_">
				<g id="XMLID_239_">
					<path id="XMLID_240_" d="M478,158h-43.5c-18.748,0-34-15.252-34-34s15.252-34,34-34H478c18.748,0,34,15.252,34,34       S496.748,158,478,158z M434.5,110c-7.72,0-14,6.28-14,14s6.28,14,14,14H478c7.72,0,14-6.28,14-14s-6.28-14-14-14H434.5z"/>
				</g>
			</g>
			<g id="XMLID_233_">
				<g id="XMLID_234_">
					<path id="XMLID_235_" d="M78.5,334H34c-18.748,0-34-15.252-34-34s15.252-34,34-34h44.5c18.748,0,34,15.252,34,34       S97.248,334,78.5,334z M34,286c-7.72,0-14,6.28-14,14s6.28,14,14,14h44.5c7.72,0,14-6.28,14-14s-6.28-14-14-14H34z"/>
				</g>
			</g>
			<g id="XMLID_228_">
				<g id="XMLID_229_">
					<path id="XMLID_230_" d="M218.5,334H166c-18.748,0-34-15.252-34-34s15.252-34,34-34h52.5c18.748,0,34,15.252,34,34       S237.248,334,218.5,334z M166,286c-7.72,0-14,6.28-14,14s6.28,14,14,14h52.5c7.72,0,14-6.28,14-14s-6.28-14-14-14H166z"/>
				</g>
			</g>
			<g id="XMLID_223_">
				<g id="XMLID_224_">
					<path id="XMLID_225_" d="M346.5,334H306c-18.748,0-34-15.252-34-34s15.252-34,34-34h40.5c18.748,0,34,15.252,34,34       S365.248,334,346.5,334z M306,286c-7.72,0-14,6.28-14,14s6.28,14,14,14h40.5c7.72,0,14-6.28,14-14s-6.28-14-14-14H306z"/>
				</g>
			</g>
			<g id="XMLID_218_">
				<g id="XMLID_219_">
					<path id="XMLID_220_" d="M478,334h-44c-18.748,0-34-15.252-34-34s15.252-34,34-34h44c18.748,0,34,15.252,34,34       S496.748,334,478,334z M434,286c-7.72,0-14,6.28-14,14s6.28,14,14,14h44c7.72,0,14-6.28,14-14s-6.28-14-14-14H434z"/>
				</g>
			</g>
			<g id="XMLID_205_">
				<g id="XMLID_214_">
					<path id="XMLID_215_" d="M135,246H63.394c-18.748,0-34-15.252-34-34s15.252-34,34-34H135c18.748,0,34,15.252,34,34       S153.748,246,135,246z M63.394,198c-7.72,0-14,6.28-14,14s6.28,14,14,14H135c7.72,0,14-6.28,14-14s-6.28-14-14-14H63.394z"/>
				</g>
				<g id="XMLID_210_">
					<path id="XMLID_211_" d="M289,246h-66c-18.748,0-34-15.252-34-34s15.252-34,34-34h66c18.748,0,34,15.252,34,34       S307.748,246,289,246z M223,198c-7.72,0-14,6.28-14,14s6.28,14,14,14h66c7.72,0,14-6.28,14-14s-6.28-14-14-14H223z"/>
				</g>
				<g id="XMLID_206_">
					<path id="XMLID_207_" d="M448.606,246H377c-18.748,0-34-15.252-34-34s15.252-34,34-34h71.606c18.748,0,34,15.252,34,34       S467.354,246,448.606,246z M377,198c-7.72,0-14,6.28-14,14s6.28,14,14,14h71.606c7.72,0,14-6.28,14-14s-6.28-14-14-14H377z"/>
				</g>
			</g>
			<g id="XMLID_194_">
				<g id="XMLID_203_">
					<path id="XMLID_204_" d="M292.917,422h-18.628c-5.522,0-10-4.478-10-10s4.478-10,10-10h18.628c7.72,0,14-6.28,14-14       s-6.28-14-14-14h-117.25c-7.72,0-14,6.28-14,14s6.28,14,14,14h18.625c5.522,0,10,4.478,10,10s-4.478,10-10,10h-18.625       c-18.748,0-34-15.252-34-34s15.252-34,34-34h117.25c18.748,0,34,15.252,34,34S311.665,422,292.917,422z"/>
				</g>
				<g id="XMLID_199_">
					<path id="XMLID_200_" d="M459.417,422h-78.5c-18.748,0-34-15.252-34-34s15.252-34,34-34h78.5c18.748,0,34,15.252,34,34       S478.165,422,459.417,422z M380.917,374c-7.72,0-14,6.28-14,14s6.28,14,14,14h78.5c7.72,0,14-6.28,14-14s-6.28-14-14-14       H380.917z"/>
				</g>
				<g id="XMLID_195_">
					<path id="XMLID_196_" d="M87.667,422H52.583c-18.748,0-34-15.252-34-34s15.252-34,34-34h35.084c18.748,0,34,15.252,34,34       S106.415,422,87.667,422z M52.583,374c-7.72,0-14,6.28-14,14s6.28,14,14,14h35.084c7.72,0,14-6.28,14-14s-6.28-14-14-14H52.583       z"/>
				</g>
			</g>
		</g>
		<g id="XMLID_191_">
			<path id="XMLID_192_" d="M234.29,422c-2.63,0-5.21-1.07-7.07-2.931c-1.86-1.859-2.93-4.439-2.93-7.069s1.069-5.21,2.93-7.07     s4.44-2.93,7.07-2.93s5.21,1.069,7.069,2.93c1.86,1.86,2.931,4.44,2.931,7.07s-1.07,5.21-2.931,7.069     C239.5,420.93,236.92,422,234.29,422z"/>
		</g>
	</g>
</g>















</svg>
