<svg xmlns="http://www.w3.org/2000/svg" width="512.002" height="480" viewBox="0 0 512.002 480"><defs><style>.a{fill:#fff;}</style></defs><g transform="translate(0 0)"><path class="a" d="M230,470a10,10,0,1,1-10-10A10,10,0,0,1,230,470Zm0,0"/><path class="a" d="M70,480H175a10,10,0,0,0,0-20H70a50,50,0,0,1,0-100,10,10,0,0,0,10-10,50.056,50.056,0,0,1,50-50,50.952,50.952,0,0,1,8.313.863,10,10,0,0,0,10.711-5.652A94.91,94.91,0,0,1,235,240c47.477,0,87.785,35.746,93.758,83.148a10.006,10.006,0,0,0,12.09,8.516A64.953,64.953,0,1,1,355,460H265a10,10,0,1,0,0,20h90a85.048,85.048,0,0,0,57.445-147.719c42.066-13.387,77.23-43.719,98.48-85.738a10,10,0,0,0-12.488-13.855C486.93,237.074,476.328,240,462,240A110.012,110.012,0,0,1,419.367,28.578a10,10,0,0,0-.527-18.641A169.484,169.484,0,0,0,362,0C268.262,0,192,76.262,192,170a169.271,169.271,0,0,0,9.145,55.125,115.581,115.581,0,0,0-66.934,55.051c-1.367-.109-2.77-.176-4.211-.176a70.1,70.1,0,0,0-69.375,60.625A70,70,0,0,0,70,480ZM362,20a146.341,146.341,0,0,1,26.848,2.5A130.025,130.025,0,0,0,462,260a109.012,109.012,0,0,0,18.395-1.477c-22.156,31.063-54.109,52.012-90.637,58.9A84.078,84.078,0,0,0,355,310a79.088,79.088,0,0,0-8.152.43C335.449,258.211,289.062,220,235,220a115.015,115.015,0,0,0-14.156.875A149.283,149.283,0,0,1,212,170c0-82.711,67.289-150,150-150Zm0,0"/></g></svg>