<svg xmlns="http://www.w3.org/2000/svg" width="512" height="512" viewBox="0 0 512 512"><defs><style>.a{fill:#fff;}</style></defs><g transform="translate(0)"><path class="a" d="M70,512H355a85,85,0,0,0,0-170,79.106,79.106,0,0,0-8.156.43c-.3-1.367-.629-2.73-.977-4.086A130.047,130.047,0,0,0,339.9,99.113a10,10,0,1,0-7.375,18.59,110.035,110.035,0,0,1,6.66,201.676,114.27,114.27,0,0,0-149.207-58.145,110.164,110.164,0,0,1,61.5-143.531,10,10,0,1,0-7.375-18.59,130.068,130.068,0,0,0-71.793,171.649,116.712,116.712,0,0,0-38.094,41.414c-1.367-.109-2.773-.176-4.215-.176a70.1,70.1,0,0,0-69.375,60.625A70,70,0,0,0,70,512Zm0-120a10,10,0,0,0,10-10,50.056,50.056,0,0,1,50-50,50.952,50.952,0,0,1,8.313.863,10,10,0,0,0,10.711-5.656A94.777,94.777,0,0,1,235,272c47.336,0,87.746,35.438,93.758,83.148a10,10,0,0,0,12.09,8.512A64.955,64.955,0,1,1,355,492H70a50,50,0,0,1,0-100Zm0,0"/><path class="a" d="M193.34,69.117a10,10,0,1,0,17.32-10l-15-25.988a10,10,0,1,0-17.32,10Zm0,0"/><path class="a" d="M452.879,138.66l25.988-15a10,10,0,1,0-10-17.32l-25.988,15a10,10,0,1,0,10,17.32Zm0,0"/><path class="a" d="M105.133,123.66l25.988,15a10,10,0,1,0,10-17.32l-25.988-15a10,10,0,1,0-10,17.32Zm0,0"/><path class="a" d="M442.883,318.66l25.988,15a10,10,0,1,0,10-17.32l-25.988-15a10,10,0,1,0-10,17.32Zm0,0"/><path class="a" d="M377,72.781a10,10,0,0,0,13.66-3.664l15-25.988a10,10,0,1,0-17.32-10l-15,25.988A10,10,0,0,0,377,72.781Zm0,0"/><path class="a" d="M292,50a10,10,0,0,0,10-10V10a10,10,0,0,0-20,0V40A10,10,0,0,0,292,50Zm0,0"/><path class="a" d="M462,220a10,10,0,0,0,10,10h30a10,10,0,0,0,0-20H472A10,10,0,0,0,462,220Zm0,0"/><path class="a" d="M82,230h30a10,10,0,0,0,0-20H82a10,10,0,0,0,0,20Zm0,0"/><path class="a" d="M302,100a10,10,0,1,1-10-10A10,10,0,0,1,302,100Zm0,0"/></g></svg>