<svg xmlns="http://www.w3.org/2000/svg" width="511.996" height="512" viewBox="0 0 511.996 512"><defs><style>.a{fill:#fff;}</style></defs><g transform="translate(0)"><path class="a" d="M322,146a10,10,0,1,0,10,10A10,10,0,0,0,322,146Zm0,0"/><path class="a" d="M410.484,106.336C386.2,46.516,322.621,0,256,0,172.82,0,101.5,68.027,91.285,146.02c-.43,0-.855-.02-1.285-.02A90,90,0,0,0,65.426,322.586l-3.578,11.383a40,40,0,1,0,76.313.02L135.644,326h54.172l-2.762,5.527A10,10,0,0,0,196,346h50v70a10,10,0,0,0,18.941,4.473L312.18,326h64.172l-2.5,7.969a40,40,0,1,0,76.309.02L444.914,317.3a110.007,110.007,0,0,0-34.43-210.965ZM100,366a20.027,20.027,0,0,1-19.082-26.008L100,279.324l12.461,39.625a.193.193,0,0,1,.016.051l6.609,21.008A20.027,20.027,0,0,1,100,366Zm156-40H212.18L246,258.359V296a10,10,0,0,0,10,10h43.816L266,373.637V336A10,10,0,0,0,256,326Zm156,40a20.025,20.025,0,0,1-19.078-26.008l6.6-20.988c0-.02.012-.035.016-.055L412,279.32l19.086,60.688A20.031,20.031,0,0,1,412,366Zm26.883-67.879L421.535,243a10,10,0,0,0-19.078,0l-19.812,63H322.18l2.762-5.531A10,10,0,0,0,316,286H266V216a10,10,0,0,0-18.945-4.473L199.82,306H129.355l-19.816-63a10,10,0,0,0-19.078,0L71.434,303.484A70,70,0,0,1,90,166a69.632,69.632,0,0,1,46.3,17.5A10,10,0,1,0,149.535,168.5,89.4,89.4,0,0,0,111.113,148.5C120.148,77.988,184.523,20,256,20c54.262,0,109.086,36.52,132.863,86.8a109.685,109.685,0,0,0-42,14,10,10,0,1,0,10.043,17.3A89.871,89.871,0,0,1,402,126c.355,0,.715,0,1.07.012.086,0,.168,0,.254.008C452.219,126.719,492,167.082,492,216a89.672,89.672,0,0,1-53.121,82.117Zm0,0"/><path class="a" d="M324.941,440.469l20-40a10,10,0,1,0-17.887-8.941l-20,40a10,10,0,0,0,17.887,8.941Zm0,0"/><path class="a" d="M245.168,505.984l20-46a10,10,0,1,0-18.34-7.973l-20,46a10,10,0,1,0,18.34,7.973Zm0,0"/><path class="a" d="M105.172,505.984l20-46a10,10,0,0,0-18.344-7.973l-20,46a10,10,0,0,0,18.344,7.973Zm0,0"/><path class="a" d="M184.945,440.469l20-40a10,10,0,0,0-17.891-8.941l-20,40a10,10,0,0,0,17.891,8.941Zm0,0"/></g></svg>