<svg xmlns="http://www.w3.org/2000/svg" width="67.729" height="72.737" viewBox="0 0 67.729 72.737"><defs><style>.a{fill:#fff;}</style></defs><g transform="translate(-17.612)"><g transform="translate(17.612)"><rect class="a" width="5.362" height="72.737"/></g><g transform="translate(29.764 5.272)"><path class="a" d="M156.422,44.1,106.2,37.134a2.681,2.681,0,0,0-3.05,2.655V70.528a2.68,2.68,0,0,0,2.681,2.681,3.006,3.006,0,0,0,.369-.024l50.218-6.97a2.681,2.681,0,0,0,2.313-2.656V46.76A2.682,2.682,0,0,0,156.422,44.1Zm-3.049,17.119-44.857,6.226V42.867l44.857,6.226Z" transform="translate(-103.154 -37.108)"/></g><g transform="translate(49.066 10.634)"><rect class="a" width="5.362" height="25.378"/></g><g transform="translate(64.617 12.754)"><rect class="a" width="21.09" height="5.362" transform="matrix(0.009, -1, 1, 0.009, 0, 21.09)"/></g></g></svg>